<svg id="Layer_1" data-name="Layer 1" xmlns="http://www.w3.org/2000/svg" xmlns:xlink="http://www.w3.org/1999/xlink" viewBox="0 0 110 33"><defs><style>.cls-1{fill:none;}.cls-2{fill:url(#linear-gradient);}.cls-3,.cls-4{fill:#ffd600;}.cls-3{stroke:#ffc629;stroke-width:0.19px;}.cls-5{fill:#ea0029;}.cls-6{clip-path:url(#clip-path);}.cls-7{fill:url(#linear-gradient-2);}</style><linearGradient id="linear-gradient" x1="55" y1="43.74" x2="55" y2="25.22" gradientUnits="userSpaceOnUse"><stop offset="0" stop-color="#ececeb"/><stop offset="1" stop-color="#8c9091"/></linearGradient><clipPath id="clip-path"><path id="SVGID" class="cls-1" d="M29.32,21H28.25c-11.82,0-26,.25-26,.44s11.69.64,26,.64h53.5c11.82,0,26-.25,26-.44S96,21,81.75,21H29.32Z"/></clipPath><linearGradient id="linear-gradient-2" x1="-1714" y1="785.97" x2="-1713.87" y2="785.97" gradientTransform="matrix(822.83, 0, 0, -822.83, 1410336.17, 646740.36)" gradientUnits="userSpaceOnUse"><stop offset="0" stop-color="#8c9091"/><stop offset="0.49" stop-color="#ececeb"/><stop offset="0.51" stop-color="#ececeb"/><stop offset="1" stop-color="#8c9091"/></linearGradient></defs><title>rbr-colour</title><path class="cls-2" d="M11.42,27.53c0-1.35-.95-2.17-2.54-2.19H2.77V32.5h1V29.89H8.76c.89,0,1.43.45,1.43,1.19V32.5h1.05V31.09a1.74,1.74,0,0,0-1.08-1.66A1.93,1.93,0,0,0,11.42,27.53ZM8.88,29H3.81V26.28H8.88c1.39,0,1.5,1,1.5,1.34S10.27,29,8.88,29Zm20.73-2.2a2.2,2.2,0,0,0-4.17,0l-2.72,5.57-.09.18h1.12l0-.07,1-2h5.56l1,2,0,.07h1.12l-.09-.18ZM25.22,29.5,26.43,27c.28-.59.6-.83,1.1-.83s.81.24,1.1.83l1.2,2.47Zm18.07-.58c0,2.42,1.05,3.56,3.31,3.58h5.61v-1H46.67c-1.71,0-2.34-.7-2.34-2.57s.63-2.57,2.34-2.57h5.54v-1H46.6C44.31,25.36,43.29,26.46,43.29,28.92ZM64,32.5h1V25.34H64Zm21.38-1c-1,0-1.22-.32-3-2.73l-.08-.11c-1.93-2.58-2.45-3.28-4.14-3.29h-.85V32.5h1V26.37c.93,0,1.17.31,2.92,2.6l.22.29c1.95,2.54,2.47,3.23,4.1,3.24h.85V25.34h-1Zm20.86-2.66v2.68h-4.55c-1.7,0-2.33-.7-2.33-2.58s.63-2.56,2.33-2.56h5.52v-1h-5.58c-2.26,0-3.32,1.15-3.32,3.57s1.06,3.57,3.32,3.59h5.65V28.81Z"/><path class="cls-3" d="M77,8.88a8.38,8.38,0,1,1,8.38,8.38A8.38,8.38,0,0,1,77,8.88Z"/><path class="cls-4" d="M92.12,11.94l.12-.25.12-.21-.32,0-.2,0ZM92,13.47a.9.9,0,0,1-.82.67,1.87,1.87,0,0,1-.75-.18l-.34-.13a1.29,1.29,0,0,0-.26-.06h-.11l-.17,0c-.13,0-.27,0-.41,0a1.1,1.1,0,0,1-.72-.27,2.2,2.2,0,0,1-1.66.68c-.22,0-.67-.16-.59-.5-.66,0-1-.57-.51-.88l.2-.15c.08-.07.2-.18.37-.36A3.34,3.34,0,0,0,87,11.15c.16-.46.27-1,.39-1.46a6.11,6.11,0,0,1,1.28-3,12.2,12.2,0,0,1,2.29-1.89c.35-.25.71-.58,1-.86a2.38,2.38,0,0,1,1-.58,2.54,2.54,0,0,1,2.17,1l0,0,.09,0,.36.09a4.19,4.19,0,0,1,1,.36,3.58,3.58,0,0,1,.54.36l.19.15.21.14a1,1,0,0,0,.3.09l.19,0,.22,0A3.42,3.42,0,0,1,99,6.1l.63.42a2.15,2.15,0,0,0,.73.27l.46.1a4.45,4.45,0,0,1,.54.19,8.17,8.17,0,0,1,.95.51l.71.47a2.09,2.09,0,0,0,1.17.46.47.47,0,0,0,.52-.48.82.82,0,0,0-.23-.49,3.65,3.65,0,0,0-.27-.3l-.33-.31a4.88,4.88,0,0,1-.62-.67,1.25,1.25,0,0,1-.29-.82,1.21,1.21,0,0,1,.39-.83A3,3,0,0,1,104.64,4l.45-.12a1.2,1.2,0,0,0,.32-.17l.26-.21a.34.34,0,0,1,.12-.06.24.24,0,0,1,.25.09,1.59,1.59,0,0,1,.23.58,2.29,2.29,0,0,1,0,.44A1.51,1.51,0,0,1,105,6a3.11,3.11,0,0,1,1.2,2.1,2,2,0,0,1-2.13,2,1.59,1.59,0,0,1-.32,0,2,2,0,0,1,0,.84,3.72,3.72,0,0,1-.11.38l0,.11c0,.06,0,.09.14.11h.37l.14,0a.86.86,0,0,1,.6.75c0,.12.06.25.1.38l0,.1a.78.78,0,0,1,.6-.31,1.94,1.94,0,0,1,1,.7.4.4,0,0,1,.06.25v.07c0-.15.32-.12.47.16a.82.82,0,0,1,.15.6s0,0,0,.06l.06.16a1.72,1.72,0,0,1,.07.21.62.62,0,0,1,0,.24.48.48,0,0,1-.18.27,1,1,0,0,1-.27.13,1.73,1.73,0,0,1-.54.11.49.49,0,0,1-.25-.07,5.1,5.1,0,0,1-.65,0,1.13,1.13,0,0,1-.94-.42l-.15-.24-.14.05-.15,0-.07,0h-.08a1.3,1.3,0,0,1-.86-.35,3.74,3.74,0,0,0-.36-.26,2.34,2.34,0,0,0-.45-.19A3.08,3.08,0,0,0,102,14a1,1,0,0,0-.45,0,1.56,1.56,0,0,1-1.28-.31l-.26-.16a.94.94,0,0,1-.25-.24,2.49,2.49,0,0,1-.45-1.2,1.83,1.83,0,0,1-.55.08l-.89-.05c-.65,0-1,.08-1.45.11a9,9,0,0,1-.92,0l-.06.06a.32.32,0,0,1,.21.15l.1,0h.94a.46.46,0,0,1,.49.52c0,.18-.32,1.06-.94,1.18a1,1,0,0,1-1,.9,8.36,8.36,0,0,1-2-.48.48.48,0,0,1-.16-.09L93,14.4,93,14.34l-.33,0a.43.43,0,0,1-.24-.1,1.15,1.15,0,0,1-.35-.6A.66.66,0,0,1,92,13.47ZM79.12,11.36l-.65.13a1.7,1.7,0,0,0,.23.44,2,2,0,0,1,.26-.37Zm-11.59.1a3.38,3.38,0,0,1-.3-1.34c-2,.31-2.89-1-2.82-2.12,0-.88.27-1.24,1.26-2a1.65,1.65,0,0,1-1.46-1.7,1.67,1.67,0,0,1,.3-.94l.11-.15.15.1a9.57,9.57,0,0,0,1,.63l.1,0,.21,0a4,4,0,0,1,.59.13,1.36,1.36,0,0,1,.79,2.18,2.54,2.54,0,0,1-.46.47c-.17.15-.37.31-.59.48a1,1,0,0,0-.44.84.58.58,0,0,0,.64.51,2.21,2.21,0,0,0,1.2-.51l.66-.47a4.42,4.42,0,0,1,.73-.44A2.73,2.73,0,0,1,69.86,7c.18,0,.35,0,.51-.07a1.62,1.62,0,0,0,.81-.23,2.21,2.21,0,0,0,.28-.23l.37-.32a1.78,1.78,0,0,1,1-.46l.35,0,.23,0a.56.56,0,0,0,.15-.11l.25-.24a2.2,2.2,0,0,1,.84-.52c.49-.17.82-.27,1.13-.4a5.48,5.48,0,0,0,1-.55A2.24,2.24,0,0,1,79.18,4c.33.22.59.43.9.68l1.12.94a6.5,6.5,0,0,1,.47.54c.14.18.28.37.4.51a3.82,3.82,0,0,1,1,1.75,10.39,10.39,0,0,0,.67,2.76l0,0,.07.09.1.1.1.11c.07.1.13.2.19.3s.1.2.16.3a1.11,1.11,0,0,0,.44.47,1.87,1.87,0,0,1,.41.27.37.37,0,0,1-.06.56.79.79,0,0,1-.38.17c.08.28-.14.57-.59.59a2.59,2.59,0,0,1-1.77-.64l0,0a1.9,1.9,0,0,1-.44.25,1.35,1.35,0,0,1-.68.09l-.31,0a.92.92,0,0,0-.24,0,5.48,5.48,0,0,0-.56.16,2,2,0,0,1-.64.14.76.76,0,0,1-.78-.39.87.87,0,0,1-.07-.17,1.42,1.42,0,0,1-.48.6,1.45,1.45,0,0,1-.48.11l-.2,0h-.06a8.2,8.2,0,0,1-2,.69,1.4,1.4,0,0,1-1.16-.85.79.79,0,0,1-.52-.13,2.94,2.94,0,0,1-.63-1.21.39.39,0,0,1,.23-.37,1,1,0,0,1,.38-.12,3.59,3.59,0,0,1,.68,0h.27l.07,0a.65.65,0,0,1,.39-.19h.08L75,12l-.12,0a1.73,1.73,0,0,1-.44.08c-.53,0-1.41,0-1.49,0a6.44,6.44,0,0,0-.65.09,3.7,3.7,0,0,1-.65,0l-.26.53a2.27,2.27,0,0,1-.26.46,1,1,0,0,1-.39.31l-.17.08-.12.06a3.34,3.34,0,0,1-.49.27,1.34,1.34,0,0,1-.65.14c-.49-.08-.84-.11-1-.12a.4.4,0,0,0-.25.08l-.16.13-.19.16a1.49,1.49,0,0,1-1.07.44l-.23,0-.14,0a.71.71,0,0,0-.1.14s0,.1-.08.14l-.09.15a.93.93,0,0,1-.79.37h-.09l-.11,0-.27-.05-.27-.06-.1,0-.08.06a.26.26,0,0,1-.14,0,2.66,2.66,0,0,1-.48-.07,1.63,1.63,0,0,1-.31-.11.5.5,0,0,1-.25-.28.61.61,0,0,1,0-.46l.08-.12a.46.46,0,0,0,0-.14,2.61,2.61,0,0,0,.06-.27,1.57,1.57,0,0,1,.08-.29.64.64,0,0,1,.57-.43h0a1.3,1.3,0,0,1,1.13-.79h0a.76.76,0,0,1,.54.39.73.73,0,0,0,.14-.18l0-.08a.84.84,0,0,1,0-.12c0-.11.07-.22.11-.33s.24-.49.57-.49a2.39,2.39,0,0,0,.77-.12A.37.37,0,0,0,67.53,11.46Z"/><path class="cls-5" d="M106.79,13.93c.11.16.06.4.1.57s.19.23.1.36l-.47.16c-.08,0,0-.1-.08-.16a6.61,6.61,0,0,0-.2-.73c0-.16.13-.26.23-.35S106.69,13.86,106.79,13.93ZM64.38,14v.07c-.11.26-.17.57-.26.86a2.46,2.46,0,0,1-.52-.14c-.05,0,0-.09,0-.14.19-.17.14-.39.18-.63a.52.52,0,0,1,.27-.31C64.2,13.76,64.29,13.91,64.38,14ZM105.69,13a3,3,0,0,1,.54.47.32.32,0,0,1-.09.24.43.43,0,0,1-.26.11.37.37,0,0,1-.26-.15,2.22,2.22,0,0,1-.31-.49C105.38,13,105.54,12.83,105.69,13Zm-40.36.16a1.46,1.46,0,0,1-.5.6.41.41,0,0,1-.27,0s-.14-.1-.14-.17,0-.2.06-.25a4.4,4.4,0,0,0,.52-.36s.11-.05.16,0A.46.46,0,0,1,65.33,13.11Zm29.92-.32a2.51,2.51,0,0,1-.17.61c-.06.13-.25.09-.38.08s-.34-.07-.36-.26a.7.7,0,0,1,.15-.47c.2,0,.43,0,.63,0S95.24,12.73,95.25,12.79ZM76.18,13c0,.1.16.2.06.28a.73.73,0,0,1-.6.19c-.17-.13-.16-.38-.31-.54s-.24-.13-.2-.27l.07,0a4.23,4.23,0,0,0,.71,0C76.15,12.6,76.08,12.88,76.18,13ZM94.43,4.36c.24.15.34.47.62.53a6.33,6.33,0,0,1,1.38.43,4.06,4.06,0,0,1,.87.62,4.93,4.93,0,0,0,.86.22,4.23,4.23,0,0,1,1.11.66c.48.38,1.15.32,1.69.56a17.88,17.88,0,0,1,2.37,1.35,1.6,1.6,0,0,0,1.46.06.82.82,0,0,0,.39-.82c-.16-.88-1.13-1.35-1.59-2.08a.88.88,0,0,1-.1-.62,1.69,1.69,0,0,1,1-.82c.3-.15.69-.12,1-.29a3,3,0,0,0,.27-.23c.06,0,.06.07.08.11a1.31,1.31,0,0,1-.46,1.37,2,2,0,0,1-.59.22c-.17.07-.51-.07-.5.23a.79.79,0,0,0,.29.34,3.06,3.06,0,0,1,1.23,1.93,1.52,1.52,0,0,1-.91,1.38,2,2,0,0,1-1.29.1c-.11,0-.29-.11-.36,0s.08.29.09.46a2.2,2.2,0,0,1,0,.92c0,.22-.27.48-.06.7s.58.21.9.26.24.22.29.36a4.84,4.84,0,0,0,.14.49c0,.32.35.44.54.66s.41.65.79.62a2.78,2.78,0,0,1,.24.82l-.06,0c-.3,0-.7.09-.93-.13s-.35-.65-.73-.52a.61.61,0,0,1-.61.09c-.19-.06-.32-.24-.49-.34a2.35,2.35,0,0,0-1.88-.42c-.39.1-.69-.16-1-.35a1.27,1.27,0,0,1-.61-1l-.07-.46a.12.12,0,0,1,.08-.1h.06a2,2,0,0,0,1.27,1.33c.57.23,1.07-.05,1.62.05a2.9,2.9,0,0,1,1.39.74s.06,0,.08-.06v0a2.33,2.33,0,0,0-2-1,1.6,1.6,0,0,1-1.71-.64,2.28,2.28,0,0,1-.43-1,6.15,6.15,0,0,0-.3-1.3s-.12-.07-.17,0l-.09.07a2.83,2.83,0,0,1,.13,1.35.78.78,0,0,1-.79.49c-.33,0-.63,0-1,0-.79,0-1.42.2-2.23.12.07-.18.19-.34.12-.55,0-.05-.13-.05-.17,0s-.13.28-.22.41a1.28,1.28,0,0,1-.82.6,5.53,5.53,0,0,0-.64.64.26.26,0,0,0,0,.28c.16.39.6.44,1,.54a.42.42,0,0,0,.41-.19c.15-.24.18-.63.53-.67h.76a.21.21,0,0,1,.14.12l0,.11c-.16.2-.24.47-.46.61s-.28,0-.37.11a.86.86,0,0,1-.37.68c-.18.17-.48.08-.69,0-.4-.16-.83-.23-1.23-.37-.18-.05-.25-.26-.43-.31s-.37.1-.51-.06a1.84,1.84,0,0,1-.18-.53,2,2,0,0,1-.13-.43.63.63,0,0,1,0-.33l.56-1c0-.06.09-.13.16-.16a2.23,2.23,0,0,1,.4.16l0,.07-.58.89a1,1,0,0,0,.13.84s0,.06.07,0a2.44,2.44,0,0,1,0-.54,1.57,1.57,0,0,1,.25-.48l.45-.67a.41.41,0,0,0,0-.39c-.21-.21-.49-.26-.65-.52A2.94,2.94,0,0,1,92.73,9a.24.24,0,0,0-.14-.14.25.25,0,0,0-.16.08,2.37,2.37,0,0,0,.06,1.27,3.88,3.88,0,0,0,.32.82.11.11,0,0,1-.07.12,5.43,5.43,0,0,1-.9,0,2.39,2.39,0,0,1-1-.59s-.07,0-.09,0c.09.44.57.69.72,1.1s.4.57.47.91a.17.17,0,0,1-.08.14c-.1,0-.21-.05-.31,0s.1.38,0,.57-.25.36-.45.37c-.4-.14-.77-.3-1.17-.42a4.57,4.57,0,0,0-.83.05,1.74,1.74,0,0,1-.63-.42c-.06,0-.12,0-.16,0a2.18,2.18,0,0,1-1.56.88s-.08-.05-.08-.08v-.05a2.26,2.26,0,0,0,.75-.88c.09-.3.36-.52.45-.81a.07.07,0,0,0-.07-.08l-.07,0A7.59,7.59,0,0,0,87,13a1,1,0,0,1-.94.3.1.1,0,0,1,0-.13c1.35-.83,1.5-2.3,1.88-3.64A5.5,5.5,0,0,1,89,7,39,39,0,0,1,92.5,4.18a1,1,0,0,1,.57-.31A1.84,1.84,0,0,1,94.43,4.36Zm-28.77,0a2.71,2.71,0,0,1,1.48.55.94.94,0,0,1,.07,1c-.3.52-.9.79-1.28,1.24a1.23,1.23,0,0,0-.38,1.25,1.12,1.12,0,0,0,1,.72,3.15,3.15,0,0,0,1.65-.6,5,5,0,0,1,1.59-1c.38-.14.83-.07,1.2-.23A2.45,2.45,0,0,0,72,6.54a1.85,1.85,0,0,1,1.28-.46c.43.07.67-.32,1-.58A6.43,6.43,0,0,1,76,4.74a7.71,7.71,0,0,0,1.12-.62,1.77,1.77,0,0,1,1.24,0,4.38,4.38,0,0,1,.71.38l1.76,1.47c0,.06.1.1.14.14a15.52,15.52,0,0,1,1.43,1.85,3.32,3.32,0,0,1,.25.73,10.1,10.1,0,0,0,.68,2.74c.09.14.26.23.36.37a3.3,3.3,0,0,0,.89,1.14l.27.13a.06.06,0,0,1,0,.09l0,0a1.28,1.28,0,0,1-1.23-.64,1.66,1.66,0,0,0-.79-.86s0,0-.06,0,.17.22.23.34a3.39,3.39,0,0,1,.35.75,1.49,1.49,0,0,0,.63.64l.35.18a.09.09,0,0,1,0,.13l0,0a1.93,1.93,0,0,1-1.51-.6.53.53,0,0,0-.37-.2,1.49,1.49,0,0,1-.87.48,2,2,0,0,0-1.09.07,3.28,3.28,0,0,1-.93.25.41.41,0,0,1-.39-.22c0-.19-.14-.41,0-.6l.22-.33a.08.08,0,0,0-.07-.09c-.1,0-.24.14-.28,0,0-.34.34-.54.57-.77a1.47,1.47,0,0,1,.34-.71.09.09,0,0,0-.06-.07,4.7,4.7,0,0,1-.86.11,1.07,1.07,0,0,1-.82.13c-.06,0,0-.11,0-.16a1.94,1.94,0,0,0,.33-1.43s-.08-.09-.12-.08a.16.16,0,0,0-.12.09,2.94,2.94,0,0,1-.37,1.25c-.2.2-.5.19-.76.27a.18.18,0,0,0-.12.15c0,.17.11.29.18.43l.57,1a3.15,3.15,0,0,1-.17.82s.07,0,.11,0A1.42,1.42,0,0,0,78,12.9a.59.59,0,0,0-.06-.33l-.59-1.16c0-.08.14-.06.2-.09a1.18,1.18,0,0,1,.38.1,3.67,3.67,0,0,0,.53,1,.74.74,0,0,1,0,.62,5.75,5.75,0,0,1-.42.71c-.15.16-.38.14-.59.16H77.3a8.54,8.54,0,0,1-1.61.63.7.7,0,0,1-.71-.13,2,2,0,0,1-.41-.58c-.15-.18-.38,0-.55-.12L73.58,13a.22.22,0,0,1,.06-.18,3.19,3.19,0,0,1,.63-.1.63.63,0,0,1,.53.17c.26.3.37.72.76.91a1.48,1.48,0,0,0,.83-.2.53.53,0,0,0,.32-.42,1.25,1.25,0,0,0-.59-.9,2.62,2.62,0,0,1-.91-.71A2,2,0,0,1,75,11a.17.17,0,0,0-.18,0c-.12.12,0,.2,0,.33a.36.36,0,0,1-.06.28c-.18.15-.36.09-.6.1a8,8,0,0,0-1.39,0c-.48,0-1.15.27-1.5-.2a2.76,2.76,0,0,1,0-1.45s-.09-.09-.14-.1A.2.2,0,0,0,71,10c-.12.45-.15,1-.25,1.42a1.87,1.87,0,0,1-.89,1,3.11,3.11,0,0,1-1.25.3,2.42,2.42,0,0,0-2.09.88.56.56,0,0,0-.09.31.11.11,0,0,0,.12,0A2.53,2.53,0,0,1,68.65,13c1.1,0,1.52-.07,2.06-.8.12-.15.2-.31.32-.47.08,0,.15.11.21.16,0,.23-.18.38-.25.58a1.16,1.16,0,0,1-.44.6,2.72,2.72,0,0,0-.71.38,1.21,1.21,0,0,1-.82.08,2.06,2.06,0,0,0-1.18,0c-.18.11-.32.3-.49.42s-.45.3-.74.28-.44-.17-.6,0-.27.54-.55.66-.66,0-1,0a1.67,1.67,0,0,1,.29-.87.47.47,0,0,0,.34-.13,1.76,1.76,0,0,0,.32-.4,2.18,2.18,0,0,0,.78-.6,2.86,2.86,0,0,1,.35-.8l.12-.05.58,0a3.2,3.2,0,0,0,.67-.38.3.3,0,0,0,.07-.27,8,8,0,0,1-.27-.78c-.07-.31,0-.62-.06-1,0,0,0-.08-.09-.08a3.38,3.38,0,0,1-1.19.13,1.75,1.75,0,0,1-1.4-1,1.65,1.65,0,0,1,.22-1.61,8.55,8.55,0,0,1,1.21-1.12.28.28,0,0,0,.08-.2.23.23,0,0,0-.15-.18,4.58,4.58,0,0,1-.83-.09,1.37,1.37,0,0,1-.86-1.06.84.84,0,0,1,.14-.56A4.6,4.6,0,0,0,65.66,4.34Z"/><path class="cls-3" d="M78.74,7.65h0a.07.07,0,0,1-.11,0h0v0a4.82,4.82,0,0,0-.25-.9s0-.07-.06-.11l-.09-.12a.3.3,0,0,1,0-.32h0a.22.22,0,0,1,.23,0h0a1,1,0,0,1,.28.35A1.81,1.81,0,0,1,78.74,7.65Z"/><path class="cls-3" d="M82.5,10.53a.19.19,0,0,0,0,.07s0,0,0,.06a.18.18,0,0,1-.12.12.11.11,0,0,1-.14-.11,2.58,2.58,0,0,0,0-.29.54.54,0,0,0-.09-.25L82,10a.63.63,0,0,0-.11-.12.32.32,0,0,0-.23-.13.48.48,0,0,0-.17.12l-.08.1-.07.09a.08.08,0,0,1-.1,0h0v0a.46.46,0,0,1,0-.33c0-.09.1-.18.13-.27h0a.34.34,0,0,0,.06-.12l.06-.15a.21.21,0,0,1,.32-.12A.6.6,0,0,1,82,9.3l.08.12a.44.44,0,0,0,.08.11A1.1,1.1,0,0,1,82.5,10.53Z"/><path class="cls-3" d="M81.58,12.57h0a1.48,1.48,0,0,1-.47.05h0l0,0,0,0a.12.12,0,0,1,0-.11.75.75,0,0,1,.51-.47h.12a.18.18,0,0,1,.1.11A.48.48,0,0,1,81.58,12.57Z"/><path class="cls-3" d="M93.26,5.9l0,.06,0,.06-.49.45a3,3,0,0,0-.41.49,1.77,1.77,0,0,0-.2.36.09.09,0,0,1-.11,0h0v0a.61.61,0,0,1,0-.3c0-.09,0-.18.07-.27a2.54,2.54,0,0,1,.88-1.09c.09-.06.29-.1.35.06A.18.18,0,0,1,93.26,5.9Z"/><path class="cls-3" d="M90.22,10a.14.14,0,0,1,0,.09.24.24,0,0,1,0,.08.16.16,0,0,1-.07.07.13.13,0,0,1-.12,0,.27.27,0,0,1-.1-.08l0,0,0-.05c0-.06-.06-.09-.13-.09a.27.27,0,0,0-.15.05l-.08.06-.08.06-.15.12a1.85,1.85,0,0,0-.14.14.53.53,0,0,0-.18.31.34.34,0,0,1,0,.08s0,.06,0,.08a.22.22,0,0,1-.09.16.15.15,0,0,1-.19-.12A1.1,1.1,0,0,1,89,10a2.5,2.5,0,0,0,.31-.34c.1-.12.2-.25.3-.36l0,0a.28.28,0,0,1,.29.16A2.3,2.3,0,0,1,90.22,10Z"/><path class="cls-3" d="M90.05,12.51a.18.18,0,0,1,0,.19h0a.28.28,0,0,1-.2,0l-.19,0h0a.49.49,0,0,1-.2-.42.19.19,0,0,1,.06-.15h0a.55.55,0,0,1,.45.18h0C90,12.4,90,12.45,90.05,12.51Z"/><path class="cls-5" d="M15.38,7.39a4.1,4.1,0,0,0,0,8.19,4.09,4.09,0,0,0,3.72-2l-2-.92a1.68,1.68,0,0,1-1.54.93,1.59,1.59,0,0,1-1.66-1.52c0-.06,0,0,0-.09h5.41a4.43,4.43,0,0,0,0-.52A3.75,3.75,0,0,0,15.38,7.39ZM13.91,10.6a1.5,1.5,0,1,1,3,0Z"/><path class="cls-5" d="M10.91,6.67A3.65,3.65,0,0,0,7.22,3.05H2.53V15.31h2.6V5.17H6.68a1.63,1.63,0,0,1,1.7,1.6,1.68,1.68,0,0,1-1.74,1.6L6,8.38v2.91l2.6,4H11.7L8.1,10.19A3.64,3.64,0,0,0,10.91,6.67Z"/><path class="cls-5" d="M26.61,8.42a3.51,3.51,0,0,0-2.46-1,3.84,3.84,0,0,0-3.66,4,3.84,3.84,0,0,0,3.66,4,3.46,3.46,0,0,0,2.47-1.06v1h2.43v-13H26.61Zm-1.77,5a1.88,1.88,0,0,1-1.79-2,1.8,1.8,0,1,1,3.59,0A1.89,1.89,0,0,1,24.84,13.43Z"/><rect class="cls-5" x="51.37" y="2.44" width="2.45" height="12.89"/><path class="cls-5" d="M39.39,8.64a3.28,3.28,0,0,0,1.08-2.39,3.22,3.22,0,0,0-.88-2.2,4,4,0,0,0-3-.92H32.39V15.31H37.8a3.66,3.66,0,0,0,3.73-3.52A3.12,3.12,0,0,0,39.39,8.64Zm-2,4.54H35V5.23h1.64a1.3,1.3,0,0,1,0,2.6h-.85V10h1.55a1.58,1.58,0,0,1,0,3.15Z"/><rect class="cls-5" x="55.5" y="2.44" width="2.45" height="12.89"/><path class="cls-5" d="M47.61,12.23a1.4,1.4,0,0,1-2.79,0V7.81H42.39V12.7c0,1.65,1.71,3,3.82,3S50,14.35,50,12.7V7.81H47.61Z"/><g class="cls-6"><rect class="cls-7" x="2.28" y="21" width="105.44" height="1.08"/></g></svg>